<?xml version="1.0" encoding="UTF-8"?>
<!--Generator: Apple Native CoreSVG 123-->
<!DOCTYPE svg
PUBLIC "-//W3C//DTD SVG 1.1//EN"
       "http://www.w3.org/Graphics/SVG/1.1/DTD/svg11.dtd">
<svg version="1.1" xmlns="http://www.w3.org/2000/svg" xmlns:xlink="http://www.w3.org/1999/xlink" width="3300" height="2200">
 <!--glyph: "uni1002E6.medium", point size: 100.000000, font version: "Version 15.0d7e11", template writer version: "5"-->
 <g id="Notes">
  <rect height="2200" id="artboard" style="fill:white;opacity:1" width="3300" x="0" y="0"/>
  <line id="" style="fill:none;stroke:black;opacity:1;stroke-width:0.5;" x1="263" x2="3036" y1="292" y2="292"/>
  <text style="stroke:none;fill:black;font-family:-apple-system,&quot;SF Pro Display&quot;,&quot;SF Pro Text&quot;,Helvetica,sans-serif;font-weight:bold;" transform="matrix(1 0 0 1 263 322)">Weight/Scale Variations</text>
  <text style="stroke:none;fill:black;font-family:-apple-system,&quot;SF Pro Display&quot;,&quot;SF Pro Text&quot;,Helvetica,sans-serif;text-anchor:middle;" transform="matrix(1 0 0 1 559.711 322)">Ultralight</text>
  <text style="stroke:none;fill:black;font-family:-apple-system,&quot;SF Pro Display&quot;,&quot;SF Pro Text&quot;,Helvetica,sans-serif;text-anchor:middle;" transform="matrix(1 0 0 1 856.422 322)">Thin</text>
  <text style="stroke:none;fill:black;font-family:-apple-system,&quot;SF Pro Display&quot;,&quot;SF Pro Text&quot;,Helvetica,sans-serif;text-anchor:middle;" transform="matrix(1 0 0 1 1153.13 322)">Light</text>
  <text style="stroke:none;fill:black;font-family:-apple-system,&quot;SF Pro Display&quot;,&quot;SF Pro Text&quot;,Helvetica,sans-serif;text-anchor:middle;" transform="matrix(1 0 0 1 1449.84 322)">Regular</text>
  <text style="stroke:none;fill:black;font-family:-apple-system,&quot;SF Pro Display&quot;,&quot;SF Pro Text&quot;,Helvetica,sans-serif;text-anchor:middle;" transform="matrix(1 0 0 1 1746.56 322)">Medium</text>
  <text style="stroke:none;fill:black;font-family:-apple-system,&quot;SF Pro Display&quot;,&quot;SF Pro Text&quot;,Helvetica,sans-serif;text-anchor:middle;" transform="matrix(1 0 0 1 2043.27 322)">Semibold</text>
  <text style="stroke:none;fill:black;font-family:-apple-system,&quot;SF Pro Display&quot;,&quot;SF Pro Text&quot;,Helvetica,sans-serif;text-anchor:middle;" transform="matrix(1 0 0 1 2339.98 322)">Bold</text>
  <text style="stroke:none;fill:black;font-family:-apple-system,&quot;SF Pro Display&quot;,&quot;SF Pro Text&quot;,Helvetica,sans-serif;text-anchor:middle;" transform="matrix(1 0 0 1 2636.69 322)">Heavy</text>
  <text style="stroke:none;fill:black;font-family:-apple-system,&quot;SF Pro Display&quot;,&quot;SF Pro Text&quot;,Helvetica,sans-serif;text-anchor:middle;" transform="matrix(1 0 0 1 2933.4 322)">Black</text>
  <line id="" style="fill:none;stroke:black;opacity:1;stroke-width:0.5;" x1="263" x2="3036" y1="1903" y2="1903"/>
  <g id="" transform="matrix(1 0 0 1 263 1933)">
   <path d="M 9.24805 0.830078 C 13.5547 0.830078 17.1387 -2.74414 17.1387 -7.05078 C 17.1387 -11.3574 13.5449 -14.9316 9.23828 -14.9316 C 4.94141 -14.9316 1.36719 -11.3574 1.36719 -7.05078 C 1.36719 -2.74414 4.95117 0.830078 9.24805 0.830078 Z M 9.24805 -0.654297 C 5.70312 -0.654297 2.87109 -3.49609 2.87109 -7.05078 C 2.87109 -10.6055 5.69336 -13.4473 9.23828 -13.4473 C 12.793 -13.4473 15.6348 -10.6055 15.6445 -7.05078 C 15.6543 -3.49609 12.8027 -0.654297 9.24805 -0.654297 Z M 9.22852 -3.42773 C 9.69727 -3.42773 9.9707 -3.74023 9.9707 -4.25781 L 9.9707 -6.31836 L 12.1973 -6.31836 C 12.6953 -6.31836 13.0371 -6.57227 13.0371 -7.04102 C 13.0371 -7.51953 12.7148 -7.7832 12.1973 -7.7832 L 9.9707 -7.7832 L 9.9707 -10.0098 C 9.9707 -10.5273 9.69727 -10.8496 9.22852 -10.8496 C 8.75977 -10.8496 8.50586 -10.5078 8.50586 -10.0098 L 8.50586 -7.7832 L 6.29883 -7.7832 C 5.78125 -7.7832 5.44922 -7.51953 5.44922 -7.04102 C 5.44922 -6.57227 5.80078 -6.31836 6.29883 -6.31836 L 8.50586 -6.31836 L 8.50586 -4.25781 C 8.50586 -3.75977 8.75977 -3.42773 9.22852 -3.42773 Z"/>
  </g>
  <g id="" transform="matrix(1 0 0 1 281.506 1933)">
   <path d="M 11.709 2.91016 C 17.1582 2.91016 21.6699 -1.60156 21.6699 -7.05078 C 21.6699 -12.4902 17.1484 -17.0117 11.6992 -17.0117 C 6.25977 -17.0117 1.74805 -12.4902 1.74805 -7.05078 C 1.74805 -1.60156 6.26953 2.91016 11.709 2.91016 Z M 11.709 1.25 C 7.09961 1.25 3.41797 -2.44141 3.41797 -7.05078 C 3.41797 -11.6504 7.08984 -15.3516 11.6992 -15.3516 C 16.3086 -15.3516 20 -11.6504 20.0098 -7.05078 C 20.0195 -2.44141 16.3184 1.25 11.709 1.25 Z M 11.6895 -2.41211 C 12.207 -2.41211 12.5195 -2.77344 12.5195 -3.33984 L 12.5195 -6.23047 L 15.5762 -6.23047 C 16.123 -6.23047 16.5039 -6.51367 16.5039 -7.03125 C 16.5039 -7.55859 16.1426 -7.86133 15.5762 -7.86133 L 12.5195 -7.86133 L 12.5195 -10.9277 C 12.5195 -11.5039 12.207 -11.8555 11.6895 -11.8555 C 11.1719 -11.8555 10.8789 -11.4844 10.8789 -10.9277 L 10.8789 -7.86133 L 7.83203 -7.86133 C 7.26562 -7.86133 6.89453 -7.55859 6.89453 -7.03125 C 6.89453 -6.51367 7.28516 -6.23047 7.83203 -6.23047 L 10.8789 -6.23047 L 10.8789 -3.33984 C 10.8789 -2.79297 11.1719 -2.41211 11.6895 -2.41211 Z"/>
  </g>
  <g id="" transform="matrix(1 0 0 1 304.924 1933)">
   <path d="M 14.9707 5.67383 C 21.9336 5.67383 27.6953 -0.078125 27.6953 -7.04102 C 27.6953 -14.0039 21.9238 -19.7559 14.9609 -19.7559 C 8.00781 -19.7559 2.25586 -14.0039 2.25586 -7.04102 C 2.25586 -0.078125 8.01758 5.67383 14.9707 5.67383 Z M 14.9707 3.85742 C 8.93555 3.85742 4.08203 -1.00586 4.08203 -7.04102 C 4.08203 -13.0762 8.92578 -17.9395 14.9609 -17.9395 C 21.0059 -17.9395 25.8594 -13.0762 25.8691 -7.04102 C 25.8789 -1.00586 21.0156 3.85742 14.9707 3.85742 Z M 14.9512 -1.06445 C 15.5176 -1.06445 15.8691 -1.45508 15.8691 -2.06055 L 15.8691 -6.13281 L 20.1074 -6.13281 C 20.6934 -6.13281 21.1133 -6.46484 21.1133 -7.02148 C 21.1133 -7.59766 20.7227 -7.93945 20.1074 -7.93945 L 15.8691 -7.93945 L 15.8691 -12.1875 C 15.8691 -12.8027 15.5176 -13.1934 14.9512 -13.1934 C 14.3848 -13.1934 14.0625 -12.7832 14.0625 -12.1875 L 14.0625 -7.93945 L 9.83398 -7.93945 C 9.21875 -7.93945 8.80859 -7.59766 8.80859 -7.02148 C 8.80859 -6.46484 9.23828 -6.13281 9.83398 -6.13281 L 14.0625 -6.13281 L 14.0625 -2.06055 C 14.0625 -1.47461 14.3848 -1.06445 14.9512 -1.06445 Z"/>
  </g>
  <text style="stroke:none;fill:black;font-family:-apple-system,&quot;SF Pro Display&quot;,&quot;SF Pro Text&quot;,Helvetica,sans-serif;font-weight:bold;" transform="matrix(1 0 0 1 263 1953)">Design Variations</text>
  <text style="stroke:none;fill:black;font-family:-apple-system,&quot;SF Pro Display&quot;,&quot;SF Pro Text&quot;,Helvetica,sans-serif;" transform="matrix(1 0 0 1 263 1971)">Symbols are supported in up to nine weights and three scales.</text>
  <text style="stroke:none;fill:black;font-family:-apple-system,&quot;SF Pro Display&quot;,&quot;SF Pro Text&quot;,Helvetica,sans-serif;" transform="matrix(1 0 0 1 263 1989)">For optimal layout with text and other symbols, vertically align</text>
  <text style="stroke:none;fill:black;font-family:-apple-system,&quot;SF Pro Display&quot;,&quot;SF Pro Text&quot;,Helvetica,sans-serif;" transform="matrix(1 0 0 1 263 2007)">symbols with the adjacent text.</text>
  <rect height="14" id="" style="fill:#00AEEF;stroke:none;opacity:0.4;" width="3" x="776" y="1919"/>
  <g id="" transform="matrix(1 0 0 1 779 1933)">
   <path d="M 10.5273 0 L 12.373 0 L 7.17773 -14.0918 L 5.43945 -14.0918 L 0.244141 0 L 2.08984 0 L 3.50586 -4.0332 L 9.11133 -4.0332 Z M 6.2793 -11.9531 L 6.33789 -11.9531 L 8.59375 -5.52734 L 4.02344 -5.52734 Z"/>
  </g>
  <rect height="14" id="" style="fill:#00AEEF;stroke:none;opacity:0.4;" width="3" x="791.617" y="1919"/>
  <text style="stroke:none;fill:black;font-family:-apple-system,&quot;SF Pro Display&quot;,&quot;SF Pro Text&quot;,Helvetica,sans-serif;font-weight:bold;" transform="matrix(1 0 0 1 776 1953)">Margins</text>
  <text style="stroke:none;fill:black;font-family:-apple-system,&quot;SF Pro Display&quot;,&quot;SF Pro Text&quot;,Helvetica,sans-serif;" transform="matrix(1 0 0 1 776 1971)">Leading and trailing margins on the left and right side of each symbol</text>
  <text style="stroke:none;fill:black;font-family:-apple-system,&quot;SF Pro Display&quot;,&quot;SF Pro Text&quot;,Helvetica,sans-serif;" transform="matrix(1 0 0 1 776 1989)">can be adjusted by modifying the width of the blue rectangles.</text>
  <text style="stroke:none;fill:black;font-family:-apple-system,&quot;SF Pro Display&quot;,&quot;SF Pro Text&quot;,Helvetica,sans-serif;" transform="matrix(1 0 0 1 776 2007)">Modifications are automatically applied proportionally to all</text>
  <text style="stroke:none;fill:black;font-family:-apple-system,&quot;SF Pro Display&quot;,&quot;SF Pro Text&quot;,Helvetica,sans-serif;" transform="matrix(1 0 0 1 776 2025)">scales and weights.</text>
  <g id="" transform="matrix(1 0 0 1 1289 1933)">
   <path d="M 2.83203 3.11523 L 4.375 4.6582 C 5.22461 5.48828 6.19141 5.41992 7.06055 4.46289 L 17.2754 -6.66016 C 17.7051 -6.36719 18.0957 -6.37695 18.5645 -6.47461 L 19.6094 -6.68945 L 20.3027 -5.99609 L 20.2539 -5.47852 C 20.1855 -4.95117 20.3516 -4.53125 20.8496 -4.0332 L 21.6602 -3.22266 C 22.168 -2.71484 22.8223 -2.68555 23.3008 -3.16406 L 26.5527 -6.41602 C 27.0312 -6.89453 27.0117 -7.54883 26.5039 -8.05664 L 25.6836 -8.87695 C 25.1855 -9.375 24.7754 -9.55078 24.2383 -9.47266 L 23.7109 -9.41406 L 23.0566 -10.0781 L 23.3398 -11.2207 C 23.4863 -11.7871 23.3398 -12.2559 22.7148 -12.8613 L 20.3027 -15.2539 C 16.7578 -18.7793 12.2266 -18.6719 9.11133 -15.5371 C 8.69141 -15.1074 8.64258 -14.5215 8.91602 -14.0918 C 9.15039 -13.7207 9.62891 -13.4961 10.2734 -13.6621 C 11.7871 -14.043 13.3008 -13.9258 14.7852 -12.9199 L 14.1602 -11.3379 C 13.9258 -10.752 13.9453 -10.2734 14.1797 -9.83398 L 3.01758 0.439453 C 2.08008 1.30859 1.97266 2.25586 2.83203 3.11523 Z M 10.6738 -15.1465 C 13.3398 -17.1387 16.6504 -16.8262 19.0527 -14.4141 L 21.6797 -11.8066 C 21.9141 -11.5723 21.9434 -11.3867 21.8848 -11.0938 L 21.5039 -9.53125 L 23.0762 -7.95898 L 24.043 -8.04688 C 24.3262 -8.07617 24.4141 -8.05664 24.6387 -7.83203 L 25.2637 -7.20703 L 22.5098 -4.46289 L 21.8848 -5.07812 C 21.6602 -5.30273 21.6406 -5.40039 21.6699 -5.68359 L 21.7578 -6.64062 L 20.1953 -8.20312 L 18.5742 -7.89062 C 18.291 -7.83203 18.1445 -7.83203 17.9102 -8.07617 L 15.7324 -10.2539 C 15.5078 -10.4883 15.4785 -10.625 15.6055 -10.9473 L 16.5527 -13.2227 C 14.9512 -14.7559 12.8418 -15.6055 10.8008 -14.9512 C 10.7129 -14.9219 10.6445 -14.9414 10.6152 -14.9805 C 10.5859 -15.0293 10.5859 -15.0781 10.6738 -15.1465 Z M 4.10156 2.41211 C 3.61328 1.91406 3.78906 1.61133 4.12109 1.30859 L 15.0781 -8.80859 L 16.3086 -7.57812 L 6.15234 3.34961 C 5.84961 3.68164 5.46875 3.7793 5.06836 3.37891 Z"/>
  </g>
  <text style="stroke:none;fill:black;font-family:-apple-system,&quot;SF Pro Display&quot;,&quot;SF Pro Text&quot;,Helvetica,sans-serif;font-weight:bold;" transform="matrix(1 0 0 1 1289 1953)">Exporting</text>
  <text style="stroke:none;fill:black;font-family:-apple-system,&quot;SF Pro Display&quot;,&quot;SF Pro Text&quot;,Helvetica,sans-serif;" transform="matrix(1 0 0 1 1289 1971)">Symbols should be outlined when exporting to ensure the</text>
  <text style="stroke:none;fill:black;font-family:-apple-system,&quot;SF Pro Display&quot;,&quot;SF Pro Text&quot;,Helvetica,sans-serif;" transform="matrix(1 0 0 1 1289 1989)">design is preserved when submitting to Xcode.</text>
  <text id="template-version" style="stroke:none;fill:black;font-family:-apple-system,&quot;SF Pro Display&quot;,&quot;SF Pro Text&quot;,Helvetica,sans-serif;text-anchor:end;" transform="matrix(1 0 0 1 3036 1933)">Template v.1.0</text>
  <text style="stroke:none;fill:black;font-family:-apple-system,&quot;SF Pro Display&quot;,&quot;SF Pro Text&quot;,Helvetica,sans-serif;text-anchor:end;" transform="matrix(1 0 0 1 3036 1951)">Generated from bolt.fill</text>
  <text style="stroke:none;fill:black;font-family:-apple-system,&quot;SF Pro Display&quot;,&quot;SF Pro Text&quot;,Helvetica,sans-serif;text-anchor:end;" transform="matrix(1 0 0 1 3036 1969)">Typeset at 100 points</text>
  <text style="stroke:none;fill:black;font-family:-apple-system,&quot;SF Pro Display&quot;,&quot;SF Pro Text&quot;,Helvetica,sans-serif;" transform="matrix(1 0 0 1 263 726)">Small</text>
  <text style="stroke:none;fill:black;font-family:-apple-system,&quot;SF Pro Display&quot;,&quot;SF Pro Text&quot;,Helvetica,sans-serif;" transform="matrix(1 0 0 1 263 1156)">Medium</text>
  <text style="stroke:none;fill:black;font-family:-apple-system,&quot;SF Pro Display&quot;,&quot;SF Pro Text&quot;,Helvetica,sans-serif;" transform="matrix(1 0 0 1 263 1586)">Large</text>
 </g>
 <g id="Guides">
  <g id="H-reference" style="fill:#27AAE1;stroke:none;" transform="matrix(1 0 0 1 339 696)">
   <path d="M 54.9316 0 L 57.666 0 L 30.5664 -70.459 L 28.0762 -70.459 L 0.976562 0 L 3.66211 0 L 12.9395 -24.4629 L 45.7031 -24.4629 Z M 29.1992 -67.0898 L 29.4434 -67.0898 L 44.8242 -26.709 L 13.8184 -26.709 Z"/>
  </g>
  <line id="Baseline-S" style="fill:none;stroke:#27AAE1;opacity:1;stroke-width:0.577;" x1="263" x2="3036" y1="696" y2="696"/>
  <line id="Capline-S" style="fill:none;stroke:#27AAE1;opacity:1;stroke-width:0.577;" x1="263" x2="3036" y1="625.541" y2="625.541"/>
  <g id="H-reference" style="fill:#27AAE1;stroke:none;" transform="matrix(1 0 0 1 339 1126)">
   <path d="M 54.9316 0 L 57.666 0 L 30.5664 -70.459 L 28.0762 -70.459 L 0.976562 0 L 3.66211 0 L 12.9395 -24.4629 L 45.7031 -24.4629 Z M 29.1992 -67.0898 L 29.4434 -67.0898 L 44.8242 -26.709 L 13.8184 -26.709 Z"/>
  </g>
  <line id="Baseline-M" style="fill:none;stroke:#27AAE1;opacity:1;stroke-width:0.577;" x1="263" x2="3036" y1="1126" y2="1126"/>
  <line id="Capline-M" style="fill:none;stroke:#27AAE1;opacity:1;stroke-width:0.577;" x1="263" x2="3036" y1="1055.54" y2="1055.54"/>
  <g id="H-reference" style="fill:#27AAE1;stroke:none;" transform="matrix(1 0 0 1 339 1556)">
   <path d="M 54.9316 0 L 57.666 0 L 30.5664 -70.459 L 28.0762 -70.459 L 0.976562 0 L 3.66211 0 L 12.9395 -24.4629 L 45.7031 -24.4629 Z M 29.1992 -67.0898 L 29.4434 -67.0898 L 44.8242 -26.709 L 13.8184 -26.709 Z"/>
  </g>
  <line id="Baseline-L" style="fill:none;stroke:#27AAE1;opacity:1;stroke-width:0.577;" x1="263" x2="3036" y1="1556" y2="1556"/>
  <line id="Capline-L" style="fill:none;stroke:#27AAE1;opacity:1;stroke-width:0.577;" x1="263" x2="3036" y1="1485.54" y2="1485.54"/>
  <rect height="119.336" id="left-margin" style="fill:#00AEEF;stroke:none;opacity:0.4;" width="13.623" x="1401.21" y="1030.79"/>
  <rect height="119.336" id="right-margin" style="fill:#00AEEF;stroke:none;opacity:0.4;" width="14.8438" x="1483.63" y="1030.79"/>
 </g>
 <g id="Symbols">
  <g id="Black-L" transform="matrix(1 0 0 1 2866.09 1556)">
   <path d="M 23.3887 -21.6309 L 62.9395 -21.6309 L 42.4316 31.9336 C 39.209 40.2832 47.9004 44.7266 53.5156 37.9883 L 117.822 -39.1602 C 119.189 -40.8203 119.873 -42.4316 119.873 -44.1895 C 119.873 -47.5586 117.285 -49.9023 113.867 -49.9023 L 74.3652 -49.9023 L 94.873 -103.467 C 98.0957 -111.768 89.3555 -116.211 83.7402 -109.521 L 19.4336 -32.3242 C 18.0664 -30.7129 17.4316 -29.1016 17.4316 -27.2949 C 17.4316 -23.9746 19.9707 -21.6309 23.3887 -21.6309 Z"/>
  </g>
  <g id="Heavy-L" transform="matrix(1 0 0 1 2570.43 1556)">
   <path d="M 23.0957 -22.2168 L 61.7676 -22.2168 L 41.6016 30.8105 C 38.623 38.5254 46.6797 42.627 51.8555 36.377 L 114.404 -39.4043 C 115.674 -40.918 116.309 -42.4316 116.309 -44.0918 C 116.309 -47.1191 113.965 -49.2676 110.84 -49.2676 L 72.168 -49.2676 L 92.334 -102.344 C 95.3125 -110.01 87.2559 -114.111 82.0801 -107.91 L 19.5312 -32.1289 C 18.2617 -30.5664 17.627 -29.0527 17.627 -27.3926 C 17.627 -24.4141 19.9707 -22.2168 23.0957 -22.2168 Z"/>
  </g>
  <g id="Bold-L" transform="matrix(1 0 0 1 2274.89 1556)">
   <path d="M 22.7539 -22.9004 L 60.4492 -22.9004 L 40.6738 29.541 C 38.0371 36.5723 45.2637 40.2344 49.9512 34.5703 L 110.547 -39.6484 C 111.719 -41.0645 112.354 -42.4316 112.354 -43.9453 C 112.354 -46.6309 110.303 -48.584 107.422 -48.584 L 69.7266 -48.584 L 89.502 -101.074 C 92.1875 -108.057 84.9121 -111.768 80.2246 -106.104 L 19.6289 -31.8848 C 18.457 -30.4199 17.8711 -29.0527 17.8711 -27.5391 C 17.8711 -24.9023 19.9219 -22.9004 22.7539 -22.9004 Z"/>
  </g>
  <g id="Semibold-L" transform="matrix(1 0 0 1 1979.01 1556)">
   <path d="M 22.5098 -23.3887 L 59.5215 -23.3887 L 40.0391 28.7109 C 37.5977 35.2051 44.2871 38.623 48.6328 33.3496 L 107.91 -39.7949 C 109.033 -41.1621 109.57 -42.4316 109.57 -43.8477 C 109.57 -46.2891 107.715 -48.0957 105.078 -48.0957 L 68.0664 -48.0957 L 87.5488 -100.195 C 90.0391 -106.738 83.3008 -110.156 78.9551 -104.883 L 19.6777 -31.6895 C 18.6035 -30.3223 18.0176 -29.0527 18.0176 -27.6367 C 18.0176 -25.1953 19.873 -23.3887 22.5098 -23.3887 Z"/>
  </g>
  <g id="Medium-L" transform="matrix(1 0 0 1 1682.91 1556)">
   <path d="M 22.3633 -23.7305 L 58.8379 -23.7305 L 39.5996 28.0273 C 37.2559 34.2285 43.5547 37.4023 47.6562 32.4219 L 105.908 -39.9414 C 106.934 -41.2109 107.52 -42.4316 107.52 -43.7988 C 107.52 -46.0449 105.811 -47.7539 103.271 -47.7539 L 66.7969 -47.7539 L 86.084 -99.5605 C 88.3789 -105.713 82.0801 -108.936 78.0273 -103.906 L 19.7266 -31.543 C 18.7012 -30.2734 18.1152 -29.0527 18.1152 -27.7344 C 18.1152 -25.4395 19.8242 -23.7305 22.3633 -23.7305 Z"/>
  </g>
  <g id="Regular-L" transform="matrix(1 0 0 1 1387 1556)">
   <path d="M 22.1191 -24.2188 L 57.9102 -24.2188 L 38.9648 27.1973 C 36.8164 32.8613 42.627 35.791 46.3379 31.2012 L 103.32 -40.0879 C 104.248 -41.3086 104.785 -42.4316 104.785 -43.7012 C 104.785 -45.7031 103.271 -47.3145 100.977 -47.3145 L 65.1367 -47.3145 L 84.1309 -98.6816 C 86.2793 -104.395 80.4688 -107.324 76.7578 -102.686 L 19.7754 -31.3965 C 18.8477 -30.1758 18.2617 -29.0527 18.2617 -27.7832 C 18.2617 -25.7812 19.8242 -24.2188 22.1191 -24.2188 Z"/>
  </g>
  <g id="Light-L" transform="matrix(1 0 0 1 1090.19 1556)">
   <path d="M 22.1191 -24.9512 L 58.2031 -24.9512 L 38.9648 26.9043 C 37.2559 31.4941 41.7969 33.7402 44.7754 30.0781 L 101.367 -40.8691 C 102.148 -41.9434 102.686 -42.8223 102.686 -43.8965 C 102.686 -45.3125 101.611 -46.582 99.7559 -46.582 L 63.6719 -46.582 L 82.9102 -98.4375 C 84.6191 -103.027 80.0781 -105.225 77.0996 -101.562 L 20.5078 -30.6152 C 19.6777 -29.5898 19.1895 -28.6621 19.1895 -27.6367 C 19.1895 -26.1719 20.2637 -24.9512 22.1191 -24.9512 Z"/>
  </g>
  <g id="Thin-L" transform="matrix(1 0 0 1 793.336 1556)">
   <path d="M 22.1191 -25.9277 L 58.5449 -25.9277 L 39.0137 26.5625 C 37.793 29.6875 40.7227 31.0059 42.6758 28.5645 L 98.7793 -41.8945 C 99.4141 -42.7246 99.8047 -43.3594 99.8047 -44.1406 C 99.8047 -44.8242 99.4141 -45.6055 98.1445 -45.6055 L 61.7188 -45.6055 L 81.25 -98.0957 C 82.4219 -101.221 79.541 -102.49 77.5391 -100.098 L 21.4844 -29.5898 C 20.8496 -28.8086 20.4102 -28.1738 20.4102 -27.3926 C 20.4102 -26.709 20.8496 -25.9277 22.1191 -25.9277 Z"/>
  </g>
  <g id="Ultralight-L" transform="matrix(1 0 0 1 496.552 1556)">
   <path d="M 22.1191 -26.416 L 58.6914 -26.416 L 39.0137 26.416 C 38.0859 28.7598 40.1855 29.5898 41.6504 27.832 L 97.4609 -42.4316 C 97.998 -43.1152 98.3887 -43.6035 98.3887 -44.2383 C 98.3887 -44.5312 98.291 -45.0684 97.3145 -45.0684 L 60.6934 -45.0684 L 80.4199 -97.9004 C 81.3477 -100.293 79.248 -101.123 77.7832 -99.3164 L 21.9727 -29.0527 C 21.4355 -28.418 21.0449 -27.8809 21.0449 -27.2461 C 21.0449 -26.9531 21.1426 -26.416 22.1191 -26.416 Z"/>
  </g>
  <g id="Black-M" transform="matrix(1 0 0 1 2879.74 1126)">
   <path d="M 18.5547 -24.2676 L 50.4883 -24.2676 L 33.9844 18.2129 C 31.3477 24.9023 38.3789 28.4668 42.9199 23.0957 L 94.9219 -38.3789 C 96.0449 -39.6973 96.5332 -41.0156 96.5332 -42.4316 C 96.5332 -45.1172 94.4824 -47.0215 91.6992 -47.0215 L 59.7656 -47.0215 L 76.2695 -89.4531 C 78.9062 -96.1426 71.875 -99.707 67.334 -94.3359 L 15.332 -32.8613 C 14.209 -31.5918 13.7207 -30.2734 13.7207 -28.8086 C 13.7207 -26.123 15.7715 -24.2676 18.5547 -24.2676 Z"/>
  </g>
  <g id="Heavy-M" transform="matrix(1 0 0 1 2584.22 1126)">
   <path d="M 18.2129 -24.707 L 49.1211 -24.707 L 33.1055 17.041 C 30.6641 23.3398 37.207 26.709 41.5039 21.6309 L 91.6504 -38.4277 C 92.7246 -39.6973 93.2129 -40.918 93.2129 -42.2852 C 93.2129 -44.7754 91.3086 -46.5332 88.7207 -46.5332 L 57.7637 -46.5332 L 73.8281 -88.3301 C 76.2695 -94.6289 69.6777 -97.9492 65.4297 -92.8711 L 15.2344 -32.8613 C 14.209 -31.5918 13.7207 -30.3711 13.7207 -29.0039 C 13.7207 -26.5137 15.625 -24.707 18.2129 -24.707 Z"/>
  </g>
  <g id="Bold-M" transform="matrix(1 0 0 1 2288.83 1126)">
   <path d="M 17.8223 -25.2441 L 47.6074 -25.2441 L 32.0801 15.7227 C 29.834 21.6309 35.9375 24.707 39.8926 19.9707 L 88.0371 -38.4766 C 89.0137 -39.6484 89.502 -40.8203 89.502 -42.0898 C 89.502 -44.3359 87.7441 -45.9961 85.3516 -45.9961 L 55.5664 -45.9961 L 71.0938 -87.0117 C 73.3398 -92.8711 67.2363 -95.9961 63.2812 -91.2598 L 15.1367 -32.8125 C 14.1602 -31.5918 13.6719 -30.4688 13.6719 -29.1992 C 13.6719 -26.9043 15.4297 -25.2441 17.8223 -25.2441 Z"/>
  </g>
  <g id="Semibold-M" transform="matrix(1 0 0 1 1993.05 1126)">
   <path d="M 17.5781 -25.6348 L 46.582 -25.6348 L 31.3965 14.8438 C 29.248 20.4102 35.0586 23.3887 38.7695 18.8477 L 85.5469 -38.5254 C 86.4746 -39.6484 86.9141 -40.7227 86.9141 -41.9434 C 86.9141 -44.0918 85.2539 -45.6543 83.0078 -45.6543 L 54.0039 -45.6543 L 69.1895 -86.1328 C 71.3379 -91.6992 65.5273 -94.6289 61.8164 -90.1367 L 15.0391 -32.7637 C 14.1602 -31.6406 13.6719 -30.5664 13.6719 -29.3457 C 13.6719 -27.1973 15.332 -25.6348 17.5781 -25.6348 Z"/>
  </g>
  <g id="Medium-M" transform="matrix(1 0 0 1 1697.02 1126)">
   <path d="M 17.3828 -25.9277 L 45.8008 -25.9277 L 30.8594 14.1602 C 28.8574 19.5312 34.375 22.3633 37.8906 18.0176 L 83.6426 -38.5254 C 84.5215 -39.6484 84.9609 -40.6738 84.9609 -41.8457 C 84.9609 -43.8477 83.3984 -45.3613 81.25 -45.3613 L 52.832 -45.3613 L 67.7734 -85.4492 C 69.7754 -90.7715 64.2578 -93.6035 60.7422 -89.2578 L 14.9902 -32.7148 C 14.1113 -31.6406 13.6719 -30.6152 13.6719 -29.4434 C 13.6719 -27.3926 15.2344 -25.9277 17.3828 -25.9277 Z"/>
  </g>
  <g id="Regular-M" transform="matrix(1 0 0 1 1401.21 1126)">
   <path d="M 17.1387 -26.2695 L 44.7754 -26.2695 L 30.1758 13.2812 C 28.2715 18.3105 33.4961 20.9961 36.8164 16.8945 L 81.1523 -38.5742 C 81.9824 -39.5996 82.4219 -40.5762 82.4219 -41.6992 C 82.4219 -43.5547 81.0059 -45.0195 78.9551 -45.0195 L 51.3184 -45.0195 L 65.918 -84.5703 C 67.7734 -89.5996 62.5977 -92.2852 59.2773 -88.1348 L 14.9414 -32.7148 C 14.1113 -31.6406 13.623 -30.6641 13.623 -29.5898 C 13.623 -27.6855 15.0879 -26.2695 17.1387 -26.2695 Z"/>
  </g>
  <g id="Light-M" transform="matrix(1 0 0 1 1104.4 1126)">
   <path d="M 17.1387 -26.9531 L 44.9707 -26.9531 L 30.1758 13.0371 C 28.6621 17.0898 32.7637 19.1406 35.4004 15.8691 L 79.4434 -39.2578 C 80.127 -40.1367 80.5176 -40.918 80.5176 -41.8457 C 80.5176 -43.2129 79.4922 -44.3359 77.832 -44.3359 L 50 -44.3359 L 64.7949 -84.3262 C 66.3086 -88.3789 62.207 -90.4297 59.5703 -87.1582 L 15.5762 -31.9824 C 14.8926 -31.1035 14.4531 -30.3223 14.4531 -29.3945 C 14.4531 -28.0273 15.4785 -26.9531 17.1387 -26.9531 Z"/>
  </g>
  <g id="Thin-M" transform="matrix(1 0 0 1 807.57 1126)">
   <path d="M 17.1387 -27.7832 L 45.3125 -27.7832 L 30.2246 12.7441 C 29.1992 15.4785 31.7871 16.6992 33.5449 14.5508 L 77.0996 -40.1855 C 77.6367 -40.8691 77.9785 -41.4062 77.9785 -42.0898 C 77.9785 -42.7734 77.5391 -43.457 76.416 -43.457 L 48.2422 -43.457 L 63.3301 -84.0332 C 64.3555 -86.7676 61.7188 -87.9395 60.0098 -85.791 L 16.4062 -31.1035 C 15.918 -30.4199 15.5762 -29.8828 15.5762 -29.1992 C 15.5762 -28.5156 16.0156 -27.7832 17.1387 -27.7832 Z"/>
  </g>
  <g id="Ultralight-M" transform="matrix(1 0 0 1 510.785 1126)">
   <path d="M 17.1387 -28.2715 L 45.459 -28.2715 L 30.2246 12.5977 C 29.4434 14.6484 31.2988 15.4297 32.5684 13.8672 L 75.9277 -40.6738 C 76.3672 -41.2109 76.6602 -41.6504 76.6602 -42.1875 C 76.6602 -42.5293 76.5137 -43.0176 75.6836 -43.0176 L 47.3633 -43.0176 L 62.5977 -83.8379 C 63.3789 -85.9375 61.4746 -86.7188 60.2051 -85.1074 L 16.8457 -30.6152 C 16.4551 -30.0781 16.1133 -29.6387 16.1133 -29.1016 C 16.1133 -28.7598 16.3086 -28.2715 17.1387 -28.2715 Z"/>
  </g>
  <g id="Black-S" transform="matrix(1 0 0 1 2891.46 696)">
   <path d="M 14.502 -26.6602 L 39.4531 -26.6602 L 26.5625 6.54297 C 24.5117 11.7676 29.9805 14.5508 33.5449 10.3516 L 74.1211 -37.6953 C 75 -38.7207 75.3906 -39.7461 75.3906 -40.8691 C 75.3906 -42.9688 73.7793 -44.4336 71.6309 -44.4336 L 46.6797 -44.4336 L 59.5703 -77.6367 C 61.6211 -82.8613 56.1523 -85.6445 52.5879 -81.4453 L 12.0117 -33.3984 C 11.1328 -32.373 10.7422 -31.3477 10.7422 -30.2246 C 10.7422 -28.125 12.3535 -26.6602 14.502 -26.6602 Z"/>
  </g>
  <g id="Heavy-S" transform="matrix(1 0 0 1 2595.67 696)">
   <path d="M 14.2578 -26.9531 L 38.3789 -26.9531 L 25.8789 5.66406 C 23.9258 10.7422 29.1992 13.4277 32.6172 9.32617 L 71.8262 -37.6465 C 72.6562 -38.6719 73.0469 -39.6484 73.0469 -40.7227 C 73.0469 -42.7246 71.5332 -44.1406 69.4336 -44.1406 L 45.3125 -44.1406 L 57.8125 -76.7578 C 59.7656 -81.8359 54.4922 -84.5215 51.123 -80.4199 L 11.8652 -33.4473 C 11.0352 -32.4219 10.6445 -31.4453 10.6445 -30.3711 C 10.6445 -28.3691 12.207 -26.9531 14.2578 -26.9531 Z"/>
  </g>
  <g id="Bold-S" transform="matrix(1 0 0 1 2299.99 696)">
   <path d="M 13.9648 -27.2949 L 37.207 -27.2949 L 25.0977 4.73633 C 23.2422 9.57031 28.2715 12.1582 31.543 8.20312 L 69.2871 -37.5977 C 70.0684 -38.5742 70.459 -39.502 70.459 -40.5273 C 70.459 -42.4316 68.9941 -43.7988 66.9922 -43.7988 L 43.75 -43.7988 L 55.8594 -75.8301 C 57.7148 -80.6641 52.6855 -83.252 49.4629 -79.2969 L 11.7188 -33.4961 C 10.8887 -32.5195 10.498 -31.5918 10.498 -30.5664 C 10.498 -28.6621 12.0117 -27.2949 13.9648 -27.2949 Z"/>
  </g>
  <g id="Semibold-S" transform="matrix(1 0 0 1 2003.98 696)">
   <path d="M 13.7695 -27.4902 L 36.377 -27.4902 L 24.5605 4.05273 C 22.8027 8.74023 27.6855 11.2793 30.8105 7.4707 L 67.5293 -37.5488 C 68.2617 -38.5254 68.6523 -39.4043 68.6523 -40.4297 C 68.6523 -42.2852 67.2363 -43.6035 65.332 -43.6035 L 42.7246 -43.6035 L 54.541 -75.1465 C 56.2988 -79.834 51.416 -82.373 48.291 -78.5645 L 11.5723 -33.5449 C 10.8398 -32.5684 10.4492 -31.6895 10.4492 -30.6641 C 10.4492 -28.8086 11.8652 -27.4902 13.7695 -27.4902 Z"/>
  </g>
  <g id="Medium-S" transform="matrix(1 0 0 1 1707.81 696)">
   <path d="M 13.623 -27.6855 L 35.7422 -27.6855 L 24.1699 3.56445 C 22.4609 8.10547 27.1973 10.5957 30.2246 6.83594 L 66.1621 -37.5488 C 66.8945 -38.4766 67.2852 -39.3555 67.2852 -40.332 C 67.2852 -42.1387 65.918 -43.4082 64.0625 -43.4082 L 41.8945 -43.4082 L 53.5156 -74.6582 C 55.2246 -79.1992 50.4395 -81.6895 47.4121 -77.9297 L 11.4746 -33.5449 C 10.7422 -32.6172 10.3516 -31.7383 10.3516 -30.7617 C 10.3516 -28.9551 11.7676 -27.6855 13.623 -27.6855 Z"/>
  </g>
  <g id="Regular-S" transform="matrix(1 0 0 1 1411.78 696)">
   <path d="M 29.541 6.10352 L 64.4043 -37.5 C 65.1367 -38.4277 65.5273 -39.2578 65.5273 -40.2344 C 65.5273 -41.9434 64.1602 -43.2129 62.4023 -43.2129 L 40.8691 -43.2129 L 52.1484 -73.9746 C 53.8086 -78.418 49.2188 -80.8105 46.2891 -77.1973 L 11.377 -33.5938 C 10.6445 -32.666 10.3027 -31.8359 10.3027 -30.8594 C 10.3027 -29.1504 11.6211 -27.8809 13.4277 -27.8809 L 34.9609 -27.8809 L 23.6328 2.88086 C 21.9727 7.32422 26.6113 9.7168 29.541 6.10352 Z"/>
  </g>
  <g id="Light-S" transform="matrix(1 0 0 1 1115 696)">
   <path d="M 28.2715 5.17578 L 62.8906 -38.1348 C 63.4766 -38.8672 63.8184 -39.5508 63.8184 -40.3809 C 63.8184 -41.6504 62.8418 -42.627 61.4258 -42.627 L 39.6973 -42.627 L 51.1719 -73.7793 C 52.5391 -77.3438 48.877 -79.1504 46.582 -76.2695 L 11.9629 -32.959 C 11.377 -32.2266 11.0352 -31.543 11.0352 -30.7129 C 11.0352 -29.4434 11.9629 -28.4668 13.4277 -28.4668 L 35.1562 -28.4668 L 23.6328 2.68555 C 22.3145 6.25 25.9277 8.05664 28.2715 5.17578 Z"/>
  </g>
  <g id="Thin-S" transform="matrix(1 0 0 1 818.165 696)">
   <path d="M 26.6113 4.00391 L 60.8398 -38.916 C 61.2793 -39.502 61.5723 -39.9902 61.5723 -40.5273 C 61.5723 -41.2109 61.1328 -41.8457 60.1562 -41.8457 L 38.1348 -41.8457 L 49.9023 -73.5352 C 50.7812 -75.9277 48.4863 -77.002 46.9238 -75.0977 L 12.6953 -32.1777 C 12.2559 -31.5918 11.9629 -31.1035 11.9629 -30.5664 C 11.9629 -29.8828 12.4512 -29.248 13.4277 -29.248 L 35.4004 -29.248 L 23.6816 2.44141 C 22.7539 4.83398 25.0977 5.9082 26.6113 4.00391 Z"/>
  </g>
  <g id="Ultralight-S" transform="matrix(1 0 0 1 521.405 696)">
   <path d="M 25.7812 3.41797 L 59.8145 -39.3555 C 60.1562 -39.8438 60.4004 -40.1855 60.4004 -40.6738 C 60.4004 -41.0156 60.2051 -41.4551 59.4727 -41.4551 L 37.3535 -41.4551 L 49.2188 -73.3887 C 49.9023 -75.1465 48.2422 -75.8789 47.1191 -74.5117 L 13.0859 -31.7383 C 12.7441 -31.25 12.5 -30.9082 12.5 -30.4199 C 12.5 -30.0781 12.6953 -29.6387 13.4277 -29.6387 L 35.5469 -29.6387 L 23.6816 2.29492 C 22.998 4.05273 24.6582 4.78516 25.7812 3.41797 Z"/>
  </g>
 </g>
</svg>
