<?xml version="1.0" encoding="UTF-8"?>
<!--Generator: Apple Native CoreSVG 123-->
<!DOCTYPE svg
PUBLIC "-//W3C//DTD SVG 1.1//EN"
       "http://www.w3.org/Graphics/SVG/1.1/DTD/svg11.dtd">
<svg version="1.1" xmlns="http://www.w3.org/2000/svg" xmlns:xlink="http://www.w3.org/1999/xlink" width="3300" height="2200">
 <!--glyph: "uni1002E5.medium", point size: 100.000000, font version: "Version 15.0d7e11", template writer version: "5"-->
 <g id="Notes">
  <rect height="2200" id="artboard" style="fill:white;opacity:1" width="3300" x="0" y="0"/>
  <line id="" style="fill:none;stroke:black;opacity:1;stroke-width:0.5;" x1="263" x2="3036" y1="292" y2="292"/>
  <text style="stroke:none;fill:black;font-family:-apple-system,&quot;SF Pro Display&quot;,&quot;SF Pro Text&quot;,Helvetica,sans-serif;font-weight:bold;" transform="matrix(1 0 0 1 263 322)">Weight/Scale Variations</text>
  <text style="stroke:none;fill:black;font-family:-apple-system,&quot;SF Pro Display&quot;,&quot;SF Pro Text&quot;,Helvetica,sans-serif;text-anchor:middle;" transform="matrix(1 0 0 1 559.711 322)">Ultralight</text>
  <text style="stroke:none;fill:black;font-family:-apple-system,&quot;SF Pro Display&quot;,&quot;SF Pro Text&quot;,Helvetica,sans-serif;text-anchor:middle;" transform="matrix(1 0 0 1 856.422 322)">Thin</text>
  <text style="stroke:none;fill:black;font-family:-apple-system,&quot;SF Pro Display&quot;,&quot;SF Pro Text&quot;,Helvetica,sans-serif;text-anchor:middle;" transform="matrix(1 0 0 1 1153.13 322)">Light</text>
  <text style="stroke:none;fill:black;font-family:-apple-system,&quot;SF Pro Display&quot;,&quot;SF Pro Text&quot;,Helvetica,sans-serif;text-anchor:middle;" transform="matrix(1 0 0 1 1449.84 322)">Regular</text>
  <text style="stroke:none;fill:black;font-family:-apple-system,&quot;SF Pro Display&quot;,&quot;SF Pro Text&quot;,Helvetica,sans-serif;text-anchor:middle;" transform="matrix(1 0 0 1 1746.56 322)">Medium</text>
  <text style="stroke:none;fill:black;font-family:-apple-system,&quot;SF Pro Display&quot;,&quot;SF Pro Text&quot;,Helvetica,sans-serif;text-anchor:middle;" transform="matrix(1 0 0 1 2043.27 322)">Semibold</text>
  <text style="stroke:none;fill:black;font-family:-apple-system,&quot;SF Pro Display&quot;,&quot;SF Pro Text&quot;,Helvetica,sans-serif;text-anchor:middle;" transform="matrix(1 0 0 1 2339.98 322)">Bold</text>
  <text style="stroke:none;fill:black;font-family:-apple-system,&quot;SF Pro Display&quot;,&quot;SF Pro Text&quot;,Helvetica,sans-serif;text-anchor:middle;" transform="matrix(1 0 0 1 2636.69 322)">Heavy</text>
  <text style="stroke:none;fill:black;font-family:-apple-system,&quot;SF Pro Display&quot;,&quot;SF Pro Text&quot;,Helvetica,sans-serif;text-anchor:middle;" transform="matrix(1 0 0 1 2933.4 322)">Black</text>
  <line id="" style="fill:none;stroke:black;opacity:1;stroke-width:0.5;" x1="263" x2="3036" y1="1903" y2="1903"/>
  <g id="" transform="matrix(1 0 0 1 263 1933)">
   <path d="M 9.24805 0.830078 C 13.5547 0.830078 17.1387 -2.74414 17.1387 -7.05078 C 17.1387 -11.3574 13.5449 -14.9316 9.23828 -14.9316 C 4.94141 -14.9316 1.36719 -11.3574 1.36719 -7.05078 C 1.36719 -2.74414 4.95117 0.830078 9.24805 0.830078 Z M 9.24805 -0.654297 C 5.70312 -0.654297 2.87109 -3.49609 2.87109 -7.05078 C 2.87109 -10.6055 5.69336 -13.4473 9.23828 -13.4473 C 12.793 -13.4473 15.6348 -10.6055 15.6445 -7.05078 C 15.6543 -3.49609 12.8027 -0.654297 9.24805 -0.654297 Z M 9.22852 -3.42773 C 9.69727 -3.42773 9.9707 -3.74023 9.9707 -4.25781 L 9.9707 -6.31836 L 12.1973 -6.31836 C 12.6953 -6.31836 13.0371 -6.57227 13.0371 -7.04102 C 13.0371 -7.51953 12.7148 -7.7832 12.1973 -7.7832 L 9.9707 -7.7832 L 9.9707 -10.0098 C 9.9707 -10.5273 9.69727 -10.8496 9.22852 -10.8496 C 8.75977 -10.8496 8.50586 -10.5078 8.50586 -10.0098 L 8.50586 -7.7832 L 6.29883 -7.7832 C 5.78125 -7.7832 5.44922 -7.51953 5.44922 -7.04102 C 5.44922 -6.57227 5.80078 -6.31836 6.29883 -6.31836 L 8.50586 -6.31836 L 8.50586 -4.25781 C 8.50586 -3.75977 8.75977 -3.42773 9.22852 -3.42773 Z"/>
  </g>
  <g id="" transform="matrix(1 0 0 1 281.506 1933)">
   <path d="M 11.709 2.91016 C 17.1582 2.91016 21.6699 -1.60156 21.6699 -7.05078 C 21.6699 -12.4902 17.1484 -17.0117 11.6992 -17.0117 C 6.25977 -17.0117 1.74805 -12.4902 1.74805 -7.05078 C 1.74805 -1.60156 6.26953 2.91016 11.709 2.91016 Z M 11.709 1.25 C 7.09961 1.25 3.41797 -2.44141 3.41797 -7.05078 C 3.41797 -11.6504 7.08984 -15.3516 11.6992 -15.3516 C 16.3086 -15.3516 20 -11.6504 20.0098 -7.05078 C 20.0195 -2.44141 16.3184 1.25 11.709 1.25 Z M 11.6895 -2.41211 C 12.207 -2.41211 12.5195 -2.77344 12.5195 -3.33984 L 12.5195 -6.23047 L 15.5762 -6.23047 C 16.123 -6.23047 16.5039 -6.51367 16.5039 -7.03125 C 16.5039 -7.55859 16.1426 -7.86133 15.5762 -7.86133 L 12.5195 -7.86133 L 12.5195 -10.9277 C 12.5195 -11.5039 12.207 -11.8555 11.6895 -11.8555 C 11.1719 -11.8555 10.8789 -11.4844 10.8789 -10.9277 L 10.8789 -7.86133 L 7.83203 -7.86133 C 7.26562 -7.86133 6.89453 -7.55859 6.89453 -7.03125 C 6.89453 -6.51367 7.28516 -6.23047 7.83203 -6.23047 L 10.8789 -6.23047 L 10.8789 -3.33984 C 10.8789 -2.79297 11.1719 -2.41211 11.6895 -2.41211 Z"/>
  </g>
  <g id="" transform="matrix(1 0 0 1 304.924 1933)">
   <path d="M 14.9707 5.67383 C 21.9336 5.67383 27.6953 -0.078125 27.6953 -7.04102 C 27.6953 -14.0039 21.9238 -19.7559 14.9609 -19.7559 C 8.00781 -19.7559 2.25586 -14.0039 2.25586 -7.04102 C 2.25586 -0.078125 8.01758 5.67383 14.9707 5.67383 Z M 14.9707 3.85742 C 8.93555 3.85742 4.08203 -1.00586 4.08203 -7.04102 C 4.08203 -13.0762 8.92578 -17.9395 14.9609 -17.9395 C 21.0059 -17.9395 25.8594 -13.0762 25.8691 -7.04102 C 25.8789 -1.00586 21.0156 3.85742 14.9707 3.85742 Z M 14.9512 -1.06445 C 15.5176 -1.06445 15.8691 -1.45508 15.8691 -2.06055 L 15.8691 -6.13281 L 20.1074 -6.13281 C 20.6934 -6.13281 21.1133 -6.46484 21.1133 -7.02148 C 21.1133 -7.59766 20.7227 -7.93945 20.1074 -7.93945 L 15.8691 -7.93945 L 15.8691 -12.1875 C 15.8691 -12.8027 15.5176 -13.1934 14.9512 -13.1934 C 14.3848 -13.1934 14.0625 -12.7832 14.0625 -12.1875 L 14.0625 -7.93945 L 9.83398 -7.93945 C 9.21875 -7.93945 8.80859 -7.59766 8.80859 -7.02148 C 8.80859 -6.46484 9.23828 -6.13281 9.83398 -6.13281 L 14.0625 -6.13281 L 14.0625 -2.06055 C 14.0625 -1.47461 14.3848 -1.06445 14.9512 -1.06445 Z"/>
  </g>
  <text style="stroke:none;fill:black;font-family:-apple-system,&quot;SF Pro Display&quot;,&quot;SF Pro Text&quot;,Helvetica,sans-serif;font-weight:bold;" transform="matrix(1 0 0 1 263 1953)">Design Variations</text>
  <text style="stroke:none;fill:black;font-family:-apple-system,&quot;SF Pro Display&quot;,&quot;SF Pro Text&quot;,Helvetica,sans-serif;" transform="matrix(1 0 0 1 263 1971)">Symbols are supported in up to nine weights and three scales.</text>
  <text style="stroke:none;fill:black;font-family:-apple-system,&quot;SF Pro Display&quot;,&quot;SF Pro Text&quot;,Helvetica,sans-serif;" transform="matrix(1 0 0 1 263 1989)">For optimal layout with text and other symbols, vertically align</text>
  <text style="stroke:none;fill:black;font-family:-apple-system,&quot;SF Pro Display&quot;,&quot;SF Pro Text&quot;,Helvetica,sans-serif;" transform="matrix(1 0 0 1 263 2007)">symbols with the adjacent text.</text>
  <rect height="14" id="" style="fill:#00AEEF;stroke:none;opacity:0.4;" width="3" x="776" y="1919"/>
  <g id="" transform="matrix(1 0 0 1 779 1933)">
   <path d="M 10.5273 0 L 12.373 0 L 7.17773 -14.0918 L 5.43945 -14.0918 L 0.244141 0 L 2.08984 0 L 3.50586 -4.0332 L 9.11133 -4.0332 Z M 6.2793 -11.9531 L 6.33789 -11.9531 L 8.59375 -5.52734 L 4.02344 -5.52734 Z"/>
  </g>
  <rect height="14" id="" style="fill:#00AEEF;stroke:none;opacity:0.4;" width="3" x="791.617" y="1919"/>
  <text style="stroke:none;fill:black;font-family:-apple-system,&quot;SF Pro Display&quot;,&quot;SF Pro Text&quot;,Helvetica,sans-serif;font-weight:bold;" transform="matrix(1 0 0 1 776 1953)">Margins</text>
  <text style="stroke:none;fill:black;font-family:-apple-system,&quot;SF Pro Display&quot;,&quot;SF Pro Text&quot;,Helvetica,sans-serif;" transform="matrix(1 0 0 1 776 1971)">Leading and trailing margins on the left and right side of each symbol</text>
  <text style="stroke:none;fill:black;font-family:-apple-system,&quot;SF Pro Display&quot;,&quot;SF Pro Text&quot;,Helvetica,sans-serif;" transform="matrix(1 0 0 1 776 1989)">can be adjusted by modifying the width of the blue rectangles.</text>
  <text style="stroke:none;fill:black;font-family:-apple-system,&quot;SF Pro Display&quot;,&quot;SF Pro Text&quot;,Helvetica,sans-serif;" transform="matrix(1 0 0 1 776 2007)">Modifications are automatically applied proportionally to all</text>
  <text style="stroke:none;fill:black;font-family:-apple-system,&quot;SF Pro Display&quot;,&quot;SF Pro Text&quot;,Helvetica,sans-serif;" transform="matrix(1 0 0 1 776 2025)">scales and weights.</text>
  <g id="" transform="matrix(1 0 0 1 1289 1933)">
   <path d="M 2.83203 3.11523 L 4.375 4.6582 C 5.22461 5.48828 6.19141 5.41992 7.06055 4.46289 L 17.2754 -6.66016 C 17.7051 -6.36719 18.0957 -6.37695 18.5645 -6.47461 L 19.6094 -6.68945 L 20.3027 -5.99609 L 20.2539 -5.47852 C 20.1855 -4.95117 20.3516 -4.53125 20.8496 -4.0332 L 21.6602 -3.22266 C 22.168 -2.71484 22.8223 -2.68555 23.3008 -3.16406 L 26.5527 -6.41602 C 27.0312 -6.89453 27.0117 -7.54883 26.5039 -8.05664 L 25.6836 -8.87695 C 25.1855 -9.375 24.7754 -9.55078 24.2383 -9.47266 L 23.7109 -9.41406 L 23.0566 -10.0781 L 23.3398 -11.2207 C 23.4863 -11.7871 23.3398 -12.2559 22.7148 -12.8613 L 20.3027 -15.2539 C 16.7578 -18.7793 12.2266 -18.6719 9.11133 -15.5371 C 8.69141 -15.1074 8.64258 -14.5215 8.91602 -14.0918 C 9.15039 -13.7207 9.62891 -13.4961 10.2734 -13.6621 C 11.7871 -14.043 13.3008 -13.9258 14.7852 -12.9199 L 14.1602 -11.3379 C 13.9258 -10.752 13.9453 -10.2734 14.1797 -9.83398 L 3.01758 0.439453 C 2.08008 1.30859 1.97266 2.25586 2.83203 3.11523 Z M 10.6738 -15.1465 C 13.3398 -17.1387 16.6504 -16.8262 19.0527 -14.4141 L 21.6797 -11.8066 C 21.9141 -11.5723 21.9434 -11.3867 21.8848 -11.0938 L 21.5039 -9.53125 L 23.0762 -7.95898 L 24.043 -8.04688 C 24.3262 -8.07617 24.4141 -8.05664 24.6387 -7.83203 L 25.2637 -7.20703 L 22.5098 -4.46289 L 21.8848 -5.07812 C 21.6602 -5.30273 21.6406 -5.40039 21.6699 -5.68359 L 21.7578 -6.64062 L 20.1953 -8.20312 L 18.5742 -7.89062 C 18.291 -7.83203 18.1445 -7.83203 17.9102 -8.07617 L 15.7324 -10.2539 C 15.5078 -10.4883 15.4785 -10.625 15.6055 -10.9473 L 16.5527 -13.2227 C 14.9512 -14.7559 12.8418 -15.6055 10.8008 -14.9512 C 10.7129 -14.9219 10.6445 -14.9414 10.6152 -14.9805 C 10.5859 -15.0293 10.5859 -15.0781 10.6738 -15.1465 Z M 4.10156 2.41211 C 3.61328 1.91406 3.78906 1.61133 4.12109 1.30859 L 15.0781 -8.80859 L 16.3086 -7.57812 L 6.15234 3.34961 C 5.84961 3.68164 5.46875 3.7793 5.06836 3.37891 Z"/>
  </g>
  <text style="stroke:none;fill:black;font-family:-apple-system,&quot;SF Pro Display&quot;,&quot;SF Pro Text&quot;,Helvetica,sans-serif;font-weight:bold;" transform="matrix(1 0 0 1 1289 1953)">Exporting</text>
  <text style="stroke:none;fill:black;font-family:-apple-system,&quot;SF Pro Display&quot;,&quot;SF Pro Text&quot;,Helvetica,sans-serif;" transform="matrix(1 0 0 1 1289 1971)">Symbols should be outlined when exporting to ensure the</text>
  <text style="stroke:none;fill:black;font-family:-apple-system,&quot;SF Pro Display&quot;,&quot;SF Pro Text&quot;,Helvetica,sans-serif;" transform="matrix(1 0 0 1 1289 1989)">design is preserved when submitting to Xcode.</text>
  <text id="template-version" style="stroke:none;fill:black;font-family:-apple-system,&quot;SF Pro Display&quot;,&quot;SF Pro Text&quot;,Helvetica,sans-serif;text-anchor:end;" transform="matrix(1 0 0 1 3036 1933)">Template v.1.0</text>
  <text style="stroke:none;fill:black;font-family:-apple-system,&quot;SF Pro Display&quot;,&quot;SF Pro Text&quot;,Helvetica,sans-serif;text-anchor:end;" transform="matrix(1 0 0 1 3036 1951)">Generated from bolt</text>
  <text style="stroke:none;fill:black;font-family:-apple-system,&quot;SF Pro Display&quot;,&quot;SF Pro Text&quot;,Helvetica,sans-serif;text-anchor:end;" transform="matrix(1 0 0 1 3036 1969)">Typeset at 100 points</text>
  <text style="stroke:none;fill:black;font-family:-apple-system,&quot;SF Pro Display&quot;,&quot;SF Pro Text&quot;,Helvetica,sans-serif;" transform="matrix(1 0 0 1 263 726)">Small</text>
  <text style="stroke:none;fill:black;font-family:-apple-system,&quot;SF Pro Display&quot;,&quot;SF Pro Text&quot;,Helvetica,sans-serif;" transform="matrix(1 0 0 1 263 1156)">Medium</text>
  <text style="stroke:none;fill:black;font-family:-apple-system,&quot;SF Pro Display&quot;,&quot;SF Pro Text&quot;,Helvetica,sans-serif;" transform="matrix(1 0 0 1 263 1586)">Large</text>
 </g>
 <g id="Guides">
  <g id="H-reference" style="fill:#27AAE1;stroke:none;" transform="matrix(1 0 0 1 339 696)">
   <path d="M 54.9316 0 L 57.666 0 L 30.5664 -70.459 L 28.0762 -70.459 L 0.976562 0 L 3.66211 0 L 12.9395 -24.4629 L 45.7031 -24.4629 Z M 29.1992 -67.0898 L 29.4434 -67.0898 L 44.8242 -26.709 L 13.8184 -26.709 Z"/>
  </g>
  <line id="Baseline-S" style="fill:none;stroke:#27AAE1;opacity:1;stroke-width:0.577;" x1="263" x2="3036" y1="696" y2="696"/>
  <line id="Capline-S" style="fill:none;stroke:#27AAE1;opacity:1;stroke-width:0.577;" x1="263" x2="3036" y1="625.541" y2="625.541"/>
  <g id="H-reference" style="fill:#27AAE1;stroke:none;" transform="matrix(1 0 0 1 339 1126)">
   <path d="M 54.9316 0 L 57.666 0 L 30.5664 -70.459 L 28.0762 -70.459 L 0.976562 0 L 3.66211 0 L 12.9395 -24.4629 L 45.7031 -24.4629 Z M 29.1992 -67.0898 L 29.4434 -67.0898 L 44.8242 -26.709 L 13.8184 -26.709 Z"/>
  </g>
  <line id="Baseline-M" style="fill:none;stroke:#27AAE1;opacity:1;stroke-width:0.577;" x1="263" x2="3036" y1="1126" y2="1126"/>
  <line id="Capline-M" style="fill:none;stroke:#27AAE1;opacity:1;stroke-width:0.577;" x1="263" x2="3036" y1="1055.54" y2="1055.54"/>
  <g id="H-reference" style="fill:#27AAE1;stroke:none;" transform="matrix(1 0 0 1 339 1556)">
   <path d="M 54.9316 0 L 57.666 0 L 30.5664 -70.459 L 28.0762 -70.459 L 0.976562 0 L 3.66211 0 L 12.9395 -24.4629 L 45.7031 -24.4629 Z M 29.1992 -67.0898 L 29.4434 -67.0898 L 44.8242 -26.709 L 13.8184 -26.709 Z"/>
  </g>
  <line id="Baseline-L" style="fill:none;stroke:#27AAE1;opacity:1;stroke-width:0.577;" x1="263" x2="3036" y1="1556" y2="1556"/>
  <line id="Capline-L" style="fill:none;stroke:#27AAE1;opacity:1;stroke-width:0.577;" x1="263" x2="3036" y1="1485.54" y2="1485.54"/>
  <rect height="119.336" id="left-margin" style="fill:#00AEEF;stroke:none;opacity:0.4;" width="13.6719" x="1401.77" y="1030.79"/>
  <rect height="119.336" id="right-margin" style="fill:#00AEEF;stroke:none;opacity:0.4;" width="13.6719" x="1484.24" y="1030.79"/>
 </g>
 <g id="Symbols">
  <g id="Black-L" transform="matrix(1 0 0 1 2866.07 1556)">
   <path d="M 52.1973 37.9883 L 116.504 -42.1387 C 117.822 -43.7988 118.555 -45.4102 118.555 -47.2168 C 118.555 -50.5371 115.967 -52.8809 112.549 -52.8809 L 75.3906 -52.8809 L 93.5547 -103.467 C 96.5332 -111.963 87.8906 -116.357 82.4219 -109.521 L 18.1152 -29.3457 C 16.7969 -27.6855 16.1133 -26.0742 16.1133 -24.3164 C 16.1133 -20.9961 18.7012 -18.6035 22.0703 -18.6035 L 59.2773 -18.6035 L 41.1133 31.9336 C 38.0859 40.4297 46.7285 44.873 52.1973 37.9883 Z M 79.7363 -31.7871 L 39.502 -31.7871 L 70.8008 -72.9004 L 54.9805 -39.7461 L 95.166 -39.7461 L 63.916 1.36719 Z"/>
  </g>
  <g id="Heavy-L" transform="matrix(1 0 0 1 2570.72 1556)">
   <path d="M 50.8301 36.377 L 113.379 -42.0898 C 114.648 -43.6523 115.283 -45.1172 115.283 -46.8262 C 115.283 -49.8047 112.988 -52.002 109.814 -52.002 L 72.9492 -52.002 L 91.3086 -102.344 C 94.1406 -110.156 86.1328 -114.209 81.1035 -107.91 L 18.5547 -29.3945 C 17.2852 -27.8809 16.6504 -26.3672 16.6504 -24.707 C 16.6504 -21.6797 18.9453 -19.5312 22.1191 -19.5312 L 58.9844 -19.5312 L 40.625 30.8105 C 37.793 38.6719 45.8008 42.7246 50.8301 36.377 Z M 77.4902 -31.4453 L 37.6953 -31.4453 L 70.8984 -75.0977 L 54.4434 -40.0391 L 94.2871 -40.0391 L 61.084 3.61328 Z"/>
  </g>
  <g id="Bold-L" transform="matrix(1 0 0 1 2275.52 1556)">
   <path d="M 49.3164 34.5703 L 109.912 -42.041 C 111.084 -43.457 111.67 -44.8242 111.67 -46.3379 C 111.67 -49.0234 109.668 -50.9766 106.787 -50.9766 L 70.2637 -50.9766 L 88.8672 -101.074 C 91.4551 -108.154 84.1309 -111.865 79.5898 -106.104 L 18.9941 -29.4922 C 17.8223 -28.0273 17.2363 -26.6602 17.2363 -25.1465 C 17.2363 -22.4609 19.2383 -20.5078 22.1191 -20.5078 L 58.6426 -20.5078 L 40.0391 29.541 C 37.4512 36.6699 44.7754 40.332 49.3164 34.5703 Z M 75.0488 -31.1035 L 35.6445 -31.1035 L 70.8496 -77.4414 L 53.8574 -40.3809 L 93.2617 -40.3809 L 58.0078 5.9082 Z"/>
  </g>
  <g id="Semibold-L" transform="matrix(1 0 0 1 1979.86 1556)">
   <path d="M 48.2422 33.3496 L 107.52 -41.9922 C 108.643 -43.3594 109.18 -44.6289 109.18 -46.0449 C 109.18 -48.4863 107.324 -50.293 104.688 -50.293 L 68.4082 -50.293 L 87.1582 -100.195 C 89.5996 -106.787 82.7637 -110.205 78.5645 -104.883 L 19.2871 -29.541 C 18.2129 -28.1738 17.627 -26.9043 17.627 -25.4883 C 17.627 -23.0469 19.4824 -21.1914 22.1191 -21.1914 L 58.3984 -21.1914 L 39.6484 28.7109 C 37.207 35.3027 44.043 38.7207 48.2422 33.3496 Z M 73.291 -30.9082 L 34.2285 -30.9082 L 70.752 -78.9551 L 53.4668 -40.625 L 92.5293 -40.625 L 56.0059 7.42188 Z"/>
  </g>
  <g id="Medium-L" transform="matrix(1 0 0 1 1683.93 1556)">
   <path d="M 47.4121 32.4219 L 105.713 -41.9434 C 106.738 -43.2617 107.324 -44.4336 107.324 -45.8008 C 107.324 -48.0469 105.615 -49.7559 103.076 -49.7559 L 67.041 -49.7559 L 85.8398 -99.5605 C 88.1836 -105.762 81.7383 -108.984 77.7832 -103.906 L 19.5312 -29.541 C 18.457 -28.2715 17.9199 -27.0508 17.9199 -25.6836 C 17.9199 -23.4375 19.6289 -21.7285 22.1191 -21.7285 L 58.2031 -21.7285 L 39.3555 28.0273 C 37.0605 34.2285 43.457 37.4512 47.4121 32.4219 Z M 72.0215 -30.7129 L 33.1543 -30.7129 L 70.6543 -80.0293 L 53.1738 -40.8203 L 91.9922 -40.8203 L 54.4922 8.49609 Z"/>
  </g>
  <g id="Regular-L" transform="matrix(1 0 0 1 1388.27 1556)">
   <path d="M 46.3867 31.2012 L 103.32 -41.8945 C 104.297 -43.1152 104.834 -44.2383 104.834 -45.5078 C 104.834 -47.5098 103.32 -49.0723 101.025 -49.0723 L 65.1855 -49.0723 L 84.1797 -98.6816 C 86.3281 -104.395 80.3711 -107.373 76.7578 -102.686 L 19.8242 -29.5898 C 18.8477 -28.3691 18.3105 -27.2949 18.3105 -26.0254 C 18.3105 -23.9746 19.8242 -22.4121 22.168 -22.4121 L 57.959 -22.4121 L 38.9648 27.1973 C 36.8164 32.8613 42.7734 35.8398 46.3867 31.2012 Z M 70.3125 -30.4688 L 31.7871 -30.4688 L 70.5078 -81.3965 L 52.7832 -41.0156 L 91.3086 -41.0156 L 52.6367 9.86328 Z"/>
  </g>
  <g id="Light-L" transform="matrix(1 0 0 1 1092.17 1556)">
   <path d="M 44.7754 30.0781 L 101.367 -42.334 C 102.246 -43.3594 102.686 -44.2383 102.686 -45.3125 C 102.686 -46.7285 101.611 -47.998 99.7559 -47.998 L 63.6719 -47.998 L 82.9102 -98.4375 C 84.668 -103.027 80.0293 -105.273 77.0996 -101.562 L 20.5078 -29.1992 C 19.6777 -28.1738 19.2383 -27.2461 19.2383 -26.1719 C 19.2383 -24.7559 20.2637 -23.5352 22.1191 -23.5352 L 58.2031 -23.5352 L 38.9648 26.9043 C 37.2559 31.4941 41.8945 33.7891 44.7754 30.0781 Z M 67.627 -29.7852 L 29.5898 -29.7852 L 72.3145 -85.3027 L 54.248 -41.748 L 92.2363 -41.748 L 49.5605 13.8184 Z"/>
  </g>
  <g id="Thin-L" transform="matrix(1 0 0 1 796.29 1556)">
   <path d="M 42.6758 28.5645 L 98.7793 -42.8711 C 99.4629 -43.6523 99.8047 -44.2871 99.8047 -45.0684 C 99.8047 -45.752 99.4141 -46.5332 98.1445 -46.5332 L 61.7188 -46.5332 L 81.25 -98.0957 C 82.4219 -101.221 79.4922 -102.49 77.5391 -100.098 L 21.4355 -28.6621 C 20.752 -27.8809 20.4102 -27.2461 20.4102 -26.416 C 20.4102 -25.7324 20.8496 -25 22.1191 -25 L 58.5449 -25 L 39.0137 26.5625 C 37.793 29.6875 40.7227 31.0059 42.6758 28.5645 Z M 64.0625 -28.8574 L 26.709 -28.8574 L 74.4141 -89.9902 L 56.1523 -42.6758 L 93.5059 -42.6758 L 45.8496 18.5059 Z"/>
  </g>
  <g id="Ultralight-L" transform="matrix(1 0 0 1 500.019 1556)">
   <path d="M 41.6016 27.832 L 97.4609 -43.1152 C 98.0469 -43.7988 98.3398 -44.2871 98.3398 -44.9219 C 98.3398 -45.2148 98.291 -45.752 97.3145 -45.752 L 60.6934 -45.752 L 80.4199 -97.9004 C 81.2988 -100.293 79.248 -101.074 77.7832 -99.3164 L 21.9238 -28.3691 C 21.3379 -27.7344 21.0449 -27.1973 21.0449 -26.5625 C 21.0449 -26.2695 21.1426 -25.7324 22.1191 -25.7324 L 58.6914 -25.7324 L 39.0137 26.416 C 38.0859 28.7598 40.1367 29.5898 41.6016 27.832 Z M 62.2559 -28.3691 L 25.2441 -28.3691 L 75.3418 -92.2363 L 57.1777 -43.1152 L 94.1406 -43.1152 L 44.043 20.7031 Z"/>
  </g>
  <g id="Black-M" transform="matrix(1 0 0 1 2879.74 1126)">
   <path d="M 41.4551 23.0957 L 93.4082 -40.918 C 94.4824 -42.1875 95.0684 -43.5059 95.0684 -44.9707 C 95.0684 -47.6562 92.9688 -49.5117 90.2344 -49.5117 L 60.8398 -49.5117 L 74.8047 -89.4531 C 77.1484 -96.3379 70.3125 -99.8535 65.8691 -94.3359 L 13.8672 -30.3711 C 12.8418 -29.0527 12.2559 -27.7344 12.2559 -26.3184 C 12.2559 -23.6328 14.3066 -21.7285 17.0898 -21.7285 L 46.4844 -21.7285 L 32.5195 18.2129 C 30.127 25.0977 37.0117 28.5645 41.4551 23.0957 Z M 63.3301 -32.5684 L 31.8848 -32.5684 L 56.25 -64.3555 L 44.043 -38.6719 L 75.4883 -38.6719 L 51.123 -6.93359 Z"/>
  </g>
  <g id="Heavy-M" transform="matrix(1 0 0 1 2584.35 1126)">
   <path d="M 40.3809 21.6309 L 90.5273 -40.7227 C 91.5527 -41.9922 92.0898 -43.2129 92.0898 -44.5801 C 92.0898 -47.0703 90.1855 -48.8281 87.5977 -48.8281 L 58.5938 -48.8281 L 72.7051 -88.3301 C 74.9512 -94.7754 68.457 -98.0469 64.3066 -92.8711 L 14.1113 -30.5664 C 13.1348 -29.2969 12.5977 -28.0762 12.5977 -26.709 C 12.5977 -24.2188 14.502 -22.4609 17.0898 -22.4609 L 46.0938 -22.4609 L 31.9824 17.041 C 29.6875 23.4863 36.2305 26.8066 40.3809 21.6309 Z M 61.6211 -32.4219 L 30.4688 -32.4219 L 55.6152 -65.332 L 43.1152 -38.8184 L 74.2676 -38.8184 L 49.0723 -5.9082 Z"/>
  </g>
  <g id="Bold-M" transform="matrix(1 0 0 1 2289.12 1126)">
   <path d="M 39.1602 19.9707 L 87.3047 -40.5273 C 88.2812 -41.6992 88.7695 -42.8711 88.7695 -44.1406 C 88.7695 -46.4355 87.0117 -48.0469 84.6191 -48.0469 L 56.1035 -48.0469 L 70.3613 -87.0117 C 72.5098 -92.9688 66.4062 -96.0938 62.5977 -91.2598 L 14.4043 -30.7129 C 13.4766 -29.541 12.9883 -28.418 12.9883 -27.1484 C 12.9883 -24.8535 14.7461 -23.1934 17.1387 -23.1934 L 45.6055 -23.1934 L 31.3477 15.7227 C 29.1992 21.7285 35.3027 24.8047 39.1602 19.9707 Z M 59.668 -32.2754 L 28.8574 -32.2754 L 54.8828 -66.4551 L 42.041 -39.0137 L 72.8516 -39.0137 L 46.875 -4.83398 Z"/>
  </g>
  <g id="Semibold-M" transform="matrix(1 0 0 1 1993.41 1126)">
   <path d="M 38.3301 18.8477 L 85.1074 -40.3809 C 85.9863 -41.5527 86.4746 -42.627 86.4746 -43.7988 C 86.4746 -45.9473 84.8145 -47.5098 82.5684 -47.5098 L 54.3945 -47.5098 L 68.75 -86.1328 C 70.8008 -91.748 64.9902 -94.7266 61.377 -90.1367 L 14.5996 -30.8594 C 13.7207 -29.7363 13.2324 -28.6621 13.2324 -27.4414 C 13.2324 -25.293 14.8926 -23.7305 17.1387 -23.7305 L 45.3125 -23.7305 L 30.957 14.8438 C 28.8574 20.459 34.7168 23.4375 38.3301 18.8477 Z M 58.3496 -32.1289 L 27.7832 -32.1289 L 54.3457 -67.2363 L 41.3574 -39.1113 L 71.9238 -39.1113 L 45.3125 -4.05273 Z"/>
  </g>
  <g id="Medium-M" transform="matrix(1 0 0 1 1697.48 1126)">
   <path d="M 37.6465 18.0176 L 83.3984 -40.2832 C 84.2773 -41.4062 84.7168 -42.4316 84.7168 -43.6035 C 84.7168 -45.6055 83.1543 -47.1191 81.0059 -47.1191 L 53.0762 -47.1191 L 67.5293 -85.4492 C 69.5312 -90.8203 63.916 -93.6523 60.498 -89.2578 L 14.7461 -30.957 C 13.8672 -29.8828 13.4277 -28.8574 13.4277 -27.6855 C 13.4277 -25.6348 14.9902 -24.1211 17.1387 -24.1211 L 45.0684 -24.1211 L 30.6152 14.1602 C 28.6133 19.5312 34.2285 22.4121 37.6465 18.0176 Z M 57.3242 -32.0801 L 26.9531 -32.0801 L 53.9551 -67.7734 L 40.7715 -39.209 L 71.1914 -39.209 L 44.1895 -3.4668 Z"/>
  </g>
  <g id="Regular-M" transform="matrix(1 0 0 1 1401.77 1126)">
   <path d="M 36.8164 16.8945 L 81.2012 -40.1855 C 82.0312 -41.2109 82.4707 -42.1875 82.4707 -43.3105 C 82.4707 -45.166 81.0059 -46.582 78.9551 -46.582 L 51.3672 -46.582 L 65.918 -84.5703 C 67.8711 -89.5996 62.5 -92.334 59.3262 -88.1348 L 14.9414 -31.1035 C 14.1113 -30.0293 13.6719 -29.0527 13.6719 -27.9785 C 13.6719 -26.0742 15.1367 -24.6582 17.1875 -24.6582 L 44.7754 -24.6582 L 30.2246 13.2812 C 28.2715 18.3105 33.6426 21.0449 36.8164 16.8945 Z M 56.0547 -31.9336 L 25.8789 -31.9336 L 53.418 -68.5059 L 40.0879 -39.3066 L 70.2148 -39.3066 L 42.6758 -2.73438 Z"/>
  </g>
  <g id="Light-M" transform="matrix(1 0 0 1 1105.62 1126)">
   <path d="M 35.4004 15.8691 L 79.4434 -40.5273 C 80.1758 -41.4062 80.5664 -42.1875 80.5664 -43.1152 C 80.5664 -44.4824 79.541 -45.6055 77.8809 -45.6055 L 50.0488 -45.6055 L 64.7949 -84.3262 C 66.3574 -88.3789 62.1582 -90.4297 59.6191 -87.1582 L 15.5762 -30.7129 C 14.8438 -29.834 14.502 -29.0527 14.502 -28.125 C 14.502 -26.7578 15.5273 -25.6836 17.1387 -25.6836 L 45.0195 -25.6836 L 30.2246 13.0371 C 28.6621 17.0898 32.8613 19.1895 35.4004 15.8691 Z M 53.6133 -31.2988 L 23.9258 -31.2988 L 55.2734 -72.3145 L 41.3574 -39.9414 L 71.0938 -39.9414 L 39.7461 1.07422 Z"/>
  </g>
  <g id="Thin-M" transform="matrix(1 0 0 1 809.645 1126)">
   <path d="M 33.5449 14.5508 L 77.1484 -41.0156 C 77.6855 -41.6992 77.9785 -42.2363 77.9785 -42.9199 C 77.9785 -43.6035 77.5391 -44.2871 76.416 -44.2871 L 48.2422 -44.2871 L 63.3301 -84.0332 C 64.4043 -86.7676 61.7188 -87.9883 60.0098 -85.791 L 16.4551 -30.2734 C 15.8691 -29.5898 15.5762 -29.0527 15.5762 -28.3691 C 15.5762 -27.6855 16.0156 -26.9531 17.1387 -26.9531 L 45.3125 -26.9531 L 30.2246 12.7441 C 29.1992 15.4785 31.8359 16.6992 33.5449 14.5508 Z M 50.4395 -30.4688 L 21.3379 -30.4688 L 57.2266 -76.709 L 43.1152 -40.7715 L 72.2168 -40.7715 L 36.3281 5.41992 Z"/>
  </g>
  <g id="Ultralight-M" transform="matrix(1 0 0 1 513.3 1126)">
   <path d="M 32.5684 13.8672 L 75.9277 -41.2598 C 76.416 -41.7969 76.6602 -42.2363 76.6602 -42.7734 C 76.6602 -43.1152 76.5137 -43.6035 75.6836 -43.6035 L 47.3633 -43.6035 L 62.5977 -83.8379 C 63.3789 -85.9375 61.4746 -86.7188 60.2051 -85.1074 L 16.8457 -30.0293 C 16.3574 -29.4434 16.1133 -29.0039 16.1133 -28.4668 C 16.1133 -28.125 16.3086 -27.6367 17.1387 -27.6367 L 45.459 -27.6367 L 30.2246 12.5977 C 29.4434 14.6484 31.2988 15.4297 32.5684 13.8672 Z M 48.7793 -30.0293 L 20.0195 -30.0293 L 58.1055 -78.7598 L 43.9941 -41.2109 L 72.8027 -41.2109 L 34.668 7.4707 Z"/>
  </g>
  <g id="Black-S" transform="matrix(1 0 0 1 2891.46 696)">
   <path d="M 32.4219 10.3516 L 72.998 -39.6484 C 73.8281 -40.6738 74.2676 -41.6992 74.2676 -42.8223 C 74.2676 -44.9219 72.6562 -46.3867 70.5078 -46.3867 L 47.5098 -46.3867 L 58.4473 -77.6367 C 60.3027 -83.0078 54.9316 -85.7422 51.4648 -81.4453 L 10.8887 -31.4453 C 10.0586 -30.4199 9.61914 -29.3945 9.61914 -28.2715 C 9.61914 -26.1719 11.2305 -24.707 13.3789 -24.707 L 36.377 -24.707 L 25.4395 6.54297 C 23.584 11.9141 28.9551 14.6484 32.4219 10.3516 Z M 49.5117 -33.1543 L 24.9023 -33.1543 L 43.9941 -58.0566 L 34.4238 -37.9395 L 59.0332 -37.9395 L 39.9414 -13.0371 Z"/>
  </g>
  <g id="Heavy-S" transform="matrix(1 0 0 1 2595.67 696)">
   <path d="M 31.7383 9.32617 L 70.9961 -39.4531 C 71.7773 -40.4785 72.2168 -41.4551 72.2168 -42.5293 C 72.2168 -44.5312 70.6543 -45.9473 68.6035 -45.9473 L 45.9473 -45.9473 L 56.9824 -76.7578 C 58.7891 -81.9336 53.5645 -84.5703 50.2441 -80.4199 L 11.0352 -31.6406 C 10.2051 -30.6152 9.81445 -29.6387 9.81445 -28.5645 C 9.81445 -26.5625 11.3281 -25.1465 13.4277 -25.1465 L 36.0352 -25.1465 L 25.0488 5.66406 C 23.1934 10.8398 28.418 13.4766 31.7383 9.32617 Z M 48.4863 -33.1055 L 24.0234 -33.1055 L 43.2129 -58.252 L 33.5449 -37.9883 L 58.0078 -37.9883 L 38.8184 -12.8418 Z"/>
  </g>
  <g id="Bold-S" transform="matrix(1 0 0 1 2300.01 696)">
   <path d="M 31.0059 8.20312 L 68.75 -39.3066 C 69.5312 -40.2344 69.9219 -41.2109 69.9219 -42.2363 C 69.9219 -44.1406 68.457 -45.5078 66.4551 -45.5078 L 44.2383 -45.5078 L 55.3223 -75.8301 C 57.1289 -80.7129 52.0508 -83.3008 48.9258 -79.2969 L 11.1816 -31.7871 C 10.4004 -30.8594 10.0098 -29.8828 10.0098 -28.8574 C 10.0098 -26.9531 11.4746 -25.5859 13.4277 -25.5859 L 35.6934 -25.5859 L 24.5605 4.73633 C 22.8027 9.61914 27.832 12.207 31.0059 8.20312 Z M 47.3145 -33.0566 L 23.0957 -33.0566 L 42.3828 -58.5449 L 32.6172 -38.0371 L 56.8359 -38.0371 L 37.5488 -12.5488 Z"/>
  </g>
  <g id="Semibold-S" transform="matrix(1 0 0 1 2004.03 696)">
   <path d="M 30.4688 7.4707 L 67.1875 -39.1602 C 67.9688 -40.0879 68.3594 -41.0156 68.3594 -41.9922 C 68.3594 -43.8477 66.8945 -45.166 64.9902 -45.166 L 43.0176 -45.166 L 54.1992 -75.1465 C 55.957 -79.8828 51.0254 -82.4219 47.998 -78.5645 L 11.2793 -31.9336 C 10.498 -31.0059 10.1074 -30.0781 10.1074 -29.1016 C 10.1074 -27.2461 11.5723 -25.9277 13.4766 -25.9277 L 35.4492 -25.9277 L 24.2676 4.05273 C 22.5098 8.78906 27.4414 11.3281 30.4688 7.4707 Z M 46.4844 -33.0078 L 22.4121 -33.0078 L 41.7969 -58.7891 L 31.9336 -38.0859 L 56.0547 -38.0859 L 36.6699 -12.3047 Z"/>
  </g>
  <g id="Medium-S" transform="matrix(1 0 0 1 1707.86 696)">
   <path d="M 30.0781 6.83594 L 66.0156 -39.0625 C 66.748 -39.9902 67.1387 -40.8691 67.1387 -41.8457 C 67.1387 -43.6523 65.7715 -44.9219 63.916 -44.9219 L 42.0898 -44.9219 L 53.3691 -74.6582 C 55.0781 -79.248 50.1953 -81.7383 47.2656 -77.9297 L 11.3281 -32.0312 C 10.5957 -31.1035 10.2051 -30.2246 10.2051 -29.248 C 10.2051 -27.4414 11.6211 -26.1719 13.4766 -26.1719 L 35.2539 -26.1719 L 24.0234 3.56445 C 22.2656 8.1543 27.1484 10.6445 30.0781 6.83594 Z M 45.8984 -33.0078 L 21.9238 -33.0078 L 41.3574 -58.9355 L 31.4453 -38.0859 L 55.4199 -38.0859 L 35.9863 -12.1582 Z"/>
  </g>
  <g id="Regular-S" transform="matrix(1 0 0 1 1411.88 696)">
   <path d="M 29.5898 6.10352 L 64.502 -38.916 C 65.1855 -39.8438 65.5762 -40.6738 65.5762 -41.6016 C 65.5762 -43.3594 64.2578 -44.6289 62.4512 -44.6289 L 40.918 -44.6289 L 52.2461 -73.9746 C 53.9551 -78.418 49.1699 -80.8594 46.3379 -77.1973 L 11.4258 -32.1777 C 10.7422 -31.25 10.3516 -30.4199 10.3516 -29.4922 C 10.3516 -27.7344 11.7188 -26.4648 13.4766 -26.4648 L 35.0098 -26.4648 L 23.6816 2.88086 C 22.0215 7.32422 26.7578 9.76562 29.5898 6.10352 Z M 45.1172 -32.959 L 21.2402 -32.959 L 40.8203 -59.2285 L 30.8105 -38.1348 L 54.6387 -38.1348 L 35.0586 -11.8652 Z"/>
  </g>
  <g id="Light-S" transform="matrix(1 0 0 1 1115.66 696)">
   <path d="M 28.3203 5.17578 L 62.9395 -39.2578 C 63.5254 -39.9902 63.8672 -40.6738 63.8672 -41.4551 C 63.8672 -42.7734 62.8906 -43.75 61.4746 -43.75 L 39.7461 -43.75 L 51.2207 -73.7793 C 52.5879 -77.3438 48.877 -79.1992 46.6309 -76.2695 L 12.0117 -31.8359 C 11.377 -31.1035 11.084 -30.4199 11.084 -29.6387 C 11.084 -28.3203 12.0117 -27.3438 13.4766 -27.3438 L 35.2051 -27.3438 L 23.6816 2.68555 C 22.3145 6.25 26.0742 8.10547 28.3203 5.17578 Z M 42.9688 -32.4219 L 19.5312 -32.4219 L 42.627 -62.8906 L 31.9336 -38.6719 L 55.3711 -38.6719 L 32.2754 -8.20312 Z"/>
  </g>
  <g id="Thin-S" transform="matrix(1 0 0 1 819.63 696)">
   <path d="M 26.6602 4.00391 L 60.8887 -39.6484 C 61.3281 -40.2344 61.5723 -40.7227 61.5723 -41.3086 C 61.5723 -41.9434 61.1328 -42.5781 60.1562 -42.5781 L 38.1348 -42.5781 L 49.9023 -73.5352 C 50.8301 -75.9277 48.4375 -77.002 46.9727 -75.0977 L 12.7441 -31.4453 C 12.2559 -30.8594 12.0117 -30.3711 12.0117 -29.7852 C 12.0117 -29.1504 12.4512 -28.5156 13.4277 -28.5156 L 35.4492 -28.5156 L 23.6816 2.44141 C 22.7539 4.83398 25.1465 5.9082 26.6602 4.00391 Z M 40.1367 -31.6895 L 17.2363 -31.6895 L 44.4824 -66.9434 L 33.4473 -39.4043 L 56.3477 -39.4043 L 29.0527 -4.15039 Z"/>
  </g>
  <g id="Ultralight-S" transform="matrix(1 0 0 1 523.261 696)">
   <path d="M 25.7812 3.41797 L 59.8145 -39.8926 C 60.2051 -40.332 60.4004 -40.7227 60.4004 -41.1621 C 60.4004 -41.5527 60.2051 -41.9922 59.4727 -41.9922 L 37.3535 -41.9922 L 49.2188 -73.3887 C 49.9023 -75.1465 48.2422 -75.8789 47.1191 -74.5117 L 13.0859 -31.2012 C 12.6953 -30.7617 12.5 -30.3711 12.5 -29.9316 C 12.5 -29.541 12.6953 -29.1016 13.4277 -29.1016 L 35.5469 -29.1016 L 23.6816 2.29492 C 22.998 4.05273 24.6582 4.78516 25.7812 3.41797 Z M 38.6719 -31.2988 L 16.0645 -31.2988 L 45.3125 -68.7988 L 34.2285 -39.7949 L 56.8848 -39.7949 L 27.5879 -2.29492 Z"/>
  </g>
 </g>
</svg>
